<svg width="30" height="30" viewBox="0 0 30 30" fill="none" xmlns="http://www.w3.org/2000/svg">
<path d="M8.72634 5.625C9.59074 5.625 10.3893 5.69086 11.122 5.88844C11.8547 6.02016 12.4556 6.29182 12.9907 6.62112C13.5258 6.95042 13.921 7.41966 14.1927 8.02063C14.4561 8.62159 14.596 9.35428 14.596 10.1528C14.596 11.0831 14.3985 11.8816 13.9292 12.4826C13.5258 13.0836 12.8672 13.6187 12.0605 14.0138C13.1965 14.3431 14.0609 14.9441 14.5878 15.7426C15.1147 16.5412 15.4522 17.5373 15.4522 18.6734C15.4522 19.6036 15.2546 20.4022 14.9171 21.069C14.5878 21.7358 14.0527 22.3368 13.4517 22.7319C12.8508 23.1353 12.1181 23.4646 11.3195 23.6622C10.521 23.8598 9.72246 23.9915 8.92392 23.9915L0 24.0079V5.625H8.72634ZM8.19124 13.0836C8.92392 13.0836 9.52489 12.886 9.9859 12.5484C10.4469 12.2109 10.6527 11.6182 10.6527 10.8855C10.6527 10.4821 10.5869 10.087 10.4551 9.82352C10.3234 9.56009 10.1259 9.35428 9.85418 9.1567C9.59074 9.02498 9.31908 8.89326 8.98978 8.8274C8.66048 8.76154 8.32296 8.76154 7.9278 8.76154H4.06681V13.0918C4.06681 13.0836 8.19124 13.0836 8.19124 13.0836ZM8.38881 20.9455C8.7922 20.9455 9.18736 20.8796 9.52489 20.8138C9.85418 20.7479 10.1917 20.6162 10.4551 20.4104C10.7186 20.2046 10.9244 20.007 11.122 19.6777C11.2537 19.3484 11.3854 18.945 11.3854 18.4758C11.3854 17.5455 11.122 16.8787 10.5869 16.4094C10.0518 16.0061 9.31908 15.8085 8.45467 15.8085H4.06681V20.9373H8.38881V20.9455Z" fill="white"/>
<path d="M21.2478 20.8796C21.7829 21.4147 22.5815 21.6782 23.6434 21.6782C24.3761 21.6782 25.043 21.4806 25.5781 21.1431C26.1132 20.7397 26.4425 20.3445 26.5742 19.9411H29.8342C29.2991 21.5382 28.5006 22.6743 27.4386 23.407C26.3766 24.0738 25.1088 24.469 23.5776 24.469C22.5156 24.469 21.5771 24.2714 20.7127 23.9339C19.8483 23.6046 19.1815 23.1353 18.5805 22.4685C17.9796 21.8675 17.5185 21.1348 17.2469 20.2704C16.9176 19.406 16.7776 18.4758 16.7776 17.4056C16.7776 16.4094 16.9093 15.471 17.2469 14.6065C17.5844 13.7421 18.0454 13.0095 18.6464 12.3426C19.2473 11.7417 19.98 11.2066 20.7786 10.8773C21.643 10.548 22.5074 10.3422 23.5776 10.3422C24.7137 10.3422 25.7098 10.5397 26.5742 11.009C27.4386 11.4782 28.1054 12.0051 28.6405 12.8037C29.1756 13.5363 29.5708 14.4007 29.8424 15.331C29.9742 16.2613 30.04 17.1998 29.9742 18.2617H20.3176C20.3176 19.3484 20.7127 20.3445 21.2478 20.8796ZM25.4463 13.8821C24.9771 13.4129 24.2444 13.1494 23.38 13.1494C22.779 13.1494 22.318 13.2811 21.9146 13.4787C21.5113 13.6763 21.2478 13.948 20.9844 14.2114C20.7209 14.4748 20.581 14.8124 20.5151 15.1417C20.4493 15.471 20.3834 15.7426 20.3834 16.0061H26.3766C26.2449 15.0182 25.9074 14.3513 25.4463 13.8821ZM19.5849 6.89279H27.0434V8.68745H19.5849V6.89279Z" fill="white"/>
</svg>
