<svg width="88" height="88" viewBox="0 0 88 88" fill="none" xmlns="http://www.w3.org/2000/svg">
<mask id="mask0_27_304" style="mask-type:luminance" maskUnits="userSpaceOnUse" x="0" y="0" width="88" height="88">
<path d="M0 0H88V88H0V0Z" fill="white"/>
<path d="M43.9999 2.51489C52.2051 2.51489 60.2259 4.94799 67.0481 9.50649C73.8704 14.065 79.1879 20.5442 82.3277 28.1247C85.4677 35.7052 86.2892 44.0466 84.6885 52.0941C83.0878 60.1416 79.1366 67.5336 73.3349 73.3355C67.5329 79.1372 60.1409 83.0884 52.0934 84.689C44.0459 86.2899 35.7046 85.4685 28.124 82.3284C20.5434 79.1885 14.0643 73.8711 9.50594 67.0488C4.9473 60.2265 2.51423 52.2057 2.51423 44.0006C2.51423 32.9978 6.88506 22.4459 14.665 14.6658C22.4452 6.8857 32.9972 2.51489 43.9999 2.51489ZM5.18615 42.6844H16.1723C16.2716 36.4198 17.3925 30.2133 19.4912 24.3097H10.5127C7.22146 29.8899 5.38956 36.2093 5.18615 42.6844ZM43.9999 82.8564C44.7406 82.8564 45.7285 82.0712 46.7164 80.7057C48.0175 78.8783 49.2598 76.0681 50.3093 72.5838C50.8896 70.6601 51.4033 68.571 51.8453 66.3486H36.172C36.6165 68.571 37.1276 70.6601 37.7079 72.5838C39.8315 79.6414 42.464 82.8564 44.0097 82.8564H43.9999ZM52.3315 63.7161C53.3108 57.6388 53.8187 51.4947 53.8504 45.339H34.1718C34.2035 51.4947 34.7112 57.6388 35.6905 63.7161H52.3315ZM53.8504 42.6942C53.8185 36.5395 53.3108 30.3961 52.3315 24.3196H35.6905C34.7114 30.3961 34.2035 36.5395 34.1718 42.6942H53.8504ZM51.8475 21.6749C51.4055 19.4524 50.8921 17.3633 50.3118 15.4397C48.188 8.38215 45.558 5.16948 44.0123 5.16948C43.2715 5.16948 42.2837 5.95227 41.2958 7.31786C39.9947 9.14765 38.7524 11.9554 37.7029 15.4397C37.1226 17.3633 36.6115 19.4524 36.1669 21.6749H51.8475ZM39.0463 5.93251C34.3742 7.38946 30.0404 10.8911 26.5118 16.1484C25.3379 17.9049 24.3058 19.7521 23.425 21.6724H33.4852C34.8188 14.7581 36.7548 9.23409 39.0463 5.93251ZM54.5393 21.6724H64.5995C63.717 19.753 62.6849 17.906 61.5129 16.1484C57.9841 10.8911 53.6478 7.38946 48.9757 5.93251C51.2672 9.23409 53.2032 14.7507 54.5393 21.6724ZM55.006 24.3171C55.9604 30.3961 56.4557 36.5385 56.4876 42.6919H69.2049C69.0641 36.1281 67.8593 29.851 65.7181 24.3171H55.006ZM56.4876 45.3364C56.4545 51.4907 55.9591 57.6338 55.006 63.7136H65.7181C67.8593 58.1749 69.0641 51.9002 69.2049 45.3364H56.4876ZM54.5318 66.3559C53.1985 73.2702 51.2599 78.7943 48.9684 82.0958C53.6405 80.6413 57.9766 77.1374 61.5054 71.88C62.6786 70.123 63.7107 68.2758 64.5922 66.3559H54.5318ZM33.4779 66.3559H23.4175C24.3003 68.272 25.3349 70.1142 26.5118 71.8652C30.0404 77.1298 34.3692 80.6315 39.0463 82.0885C36.7548 78.7868 34.8188 73.2702 33.4852 66.3486L33.4779 66.3559ZM33.016 63.7063C32.0641 57.6263 31.5688 51.4831 31.5344 45.3292H18.8121C18.9554 51.8927 20.158 58.1699 22.2989 63.7063H33.016ZM31.5344 42.6844C31.5688 36.5312 32.0641 30.389 33.016 24.3097H22.3039C20.163 29.8484 18.9604 36.1208 18.8171 42.6844H31.5344ZM13.2042 20.3439C12.8683 20.7785 12.545 21.218 12.2163 21.665H20.5406C23.0989 15.7113 26.6501 10.7997 30.848 7.43884C25.4639 9.37997 20.5781 12.4922 16.5429 16.5509C15.3464 17.7458 14.2288 19.0169 13.1967 20.3562L13.2042 20.3439ZM74.8253 20.3562C73.7935 19.0175 72.6766 17.7464 71.4818 16.5509C67.4459 12.4983 62.5622 9.39053 57.1816 7.45119C61.3794 10.8096 64.9281 15.7236 67.4864 21.6773H75.8006C75.4878 21.2312 75.1627 20.7908 74.8253 20.3562ZM77.5096 24.3097H68.5333C70.63 30.2138 71.7501 36.42 71.8497 42.6844H82.8384C82.6341 36.2091 80.8013 29.8897 77.5096 24.3097ZM82.8384 45.3292H71.8497C71.7511 51.5978 70.631 57.8083 68.5333 63.7161H77.5096C80.8013 58.1354 82.6341 51.815 82.8384 45.339V45.3292ZM74.8253 67.6671C75.1612 67.2351 75.4871 66.7931 75.8006 66.3461H67.4864C64.9281 72.2999 61.3769 77.2113 57.1816 80.5747C62.5611 78.6334 67.4446 75.526 71.4818 71.475C72.6766 70.2787 73.7935 69.0067 74.8253 67.6671ZM13.1967 67.6671C14.2288 69.0074 15.3464 70.2792 16.5429 71.475C20.5791 75.527 25.4629 78.6346 30.8429 80.5747C26.6451 77.2138 23.0942 72.2999 20.5359 66.3461H12.2214C12.5374 66.7931 12.861 67.2351 13.2092 67.6671H13.1967ZM10.525 63.7161H19.4912C17.3928 57.8118 16.2716 51.6046 16.1723 45.339H5.18615C5.38956 51.815 7.22146 58.1352 10.5127 63.7161" fill="black"/>
</mask>
<g mask="url(#mask0_27_304)">
<path d="M16.1724 42.684L17.4296 42.7038L17.41 43.9411H16.1724V42.684ZM19.4913 24.3093V23.0521H21.2724L20.6758 24.7304L19.4913 24.3093ZM10.5128 24.3093L9.42987 23.6706L9.79469 23.0521H10.5128V24.3093ZM46.7165 80.7052L47.7403 81.4344L47.735 81.4419L46.7165 80.7052ZM51.8454 66.3482V65.091H53.3771L53.0784 66.5933L51.8454 66.3482ZM36.1721 66.3482L34.9393 66.5946L34.6386 65.091H36.1721V66.3482ZM52.3316 63.7157L53.5729 63.9158L53.4025 64.9729H52.3316V63.7157ZM53.8505 45.3385V44.0814H55.1139L55.1077 45.3451L53.8505 45.3385ZM34.172 45.3385L32.9148 45.3451L32.9083 44.0814H34.172V45.3385ZM35.6906 63.7157V64.9729H34.6197L34.4495 63.9158L35.6906 63.7157ZM53.8505 42.6938L55.1077 42.6875L55.1142 43.9509H53.8505V42.6938ZM52.3316 24.3192V23.062H53.4025L53.5729 24.1192L52.3316 24.3192ZM35.6906 24.3192L34.4495 24.1192L34.6197 23.062H35.6906V24.3192ZM34.172 42.6938V43.9509H32.9083L32.9148 42.6875L34.172 42.6938ZM51.8476 21.6744L53.0806 21.4292L53.3796 22.9316H51.8476V21.6744ZM41.2959 7.31743L40.2716 6.58879L40.2774 6.58065L41.2959 7.31743ZM36.167 21.6744V22.9316H34.6336L34.9343 21.4279L36.167 21.6744ZM39.0464 5.93209L38.6723 4.73197L42.1659 3.64248L40.0793 6.64891L39.0464 5.93209ZM26.5119 16.148L25.4665 15.4494L25.468 15.4473L26.5119 16.148ZM23.4251 21.672V22.9291H21.4655L22.2824 21.1479L23.4251 21.672ZM33.4853 21.672L34.7198 21.91L34.5232 22.9291H33.4853V21.672ZM64.5996 21.672L65.7418 21.1467L66.5615 22.9291H64.5996V21.672ZM61.513 16.148L62.5567 15.4473L62.559 15.4505L61.513 16.148ZM48.9758 5.93209L47.9432 6.64891L45.8563 3.64248L49.3502 4.73197L48.9758 5.93209ZM55.0061 24.3167L53.7643 24.5117L53.5362 23.0596H55.0061V24.3167ZM56.4877 42.6915V43.9486H55.2371L55.2306 42.6978L56.4877 42.6915ZM69.205 42.6915L70.4619 42.6643L70.4895 43.9486H69.205V42.6915ZM65.7182 24.3167V23.0596H66.5798L66.8909 23.8631L65.7182 24.3167ZM56.4877 45.336L55.2306 45.3292L55.2374 44.0789H56.4877V45.336ZM55.0061 63.7132V64.9703H53.5365L53.764 63.5186L55.0061 63.7132ZM65.7182 63.7132L66.8909 64.1665L66.5801 64.9703H65.7182V63.7132ZM69.205 45.336V44.0789H70.4895L70.4619 45.3632L69.205 45.336ZM54.5319 66.3555L53.2976 66.1174L53.494 65.0983H54.5319V66.3555ZM48.9685 82.0954L49.3421 83.2957L45.8506 84.3826L47.9356 81.3786L48.9685 82.0954ZM61.5055 71.8796L62.5509 72.5776L62.5494 72.5801L61.5055 71.8796ZM64.5923 66.3555V65.0983H66.5529L65.7348 66.8802L64.5923 66.3555ZM33.478 66.3555L34.3673 67.244L33.999 67.6126H33.478V66.3555ZM23.4176 66.3555L22.2759 66.8814L21.4544 65.0983H23.4176V66.3555ZM39.0464 82.0881L40.0793 81.3713L42.1649 84.3761L38.6725 83.2882L39.0464 82.0881ZM33.4853 66.3482L32.596 65.4596L34.2713 63.7826L34.7198 66.1103L33.4853 66.3482ZM33.0161 63.7059L34.2582 63.5113L34.4855 64.963H33.0161V63.7059ZM31.5345 45.3287V44.0716H32.7848L32.7916 45.3217L31.5345 45.3287ZM18.8122 45.3287L17.5555 45.3561L17.5274 44.0716H18.8122V45.3287ZM22.299 63.7059V64.963H21.4373L21.1266 64.1592L22.299 63.7059ZM31.5345 42.684L32.7916 42.691L32.7848 43.9411H31.5345V42.684ZM33.0161 24.3093V23.0521H34.4855L34.2582 24.5038L33.0161 24.3093ZM22.304 24.3093L21.1314 23.856L21.4421 23.0521H22.304V24.3093ZM18.8172 42.684V43.9411H17.5324L17.5603 42.6566L18.8172 42.684ZM13.2043 20.3434L12.2097 19.5748L14.2827 20.9896L13.2043 20.3434ZM12.2165 21.6646V22.9217H9.73284L11.2034 20.9202L12.2165 21.6646ZM20.5408 21.6646L21.6958 22.1609L21.369 22.9217H20.5408V21.6646ZM30.8481 7.43842L30.4216 6.2558L31.6338 8.41982L30.8481 7.43842ZM16.543 16.5505L17.4344 17.4368L17.4313 17.4399L16.543 16.5505ZM13.1968 20.3558L14.1927 21.1231L12.1184 19.7097L13.1968 20.3558ZM57.1817 7.45077L56.3962 8.43244L57.6079 6.2681L57.1817 7.45077ZM67.4865 21.6769V22.9341H66.6583L66.3314 22.1732L67.4865 21.6769ZM75.8007 21.6769L76.8301 20.9552L78.2175 22.9341H75.8007V21.6769ZM68.5334 24.3093L67.3487 24.73L66.7528 23.0521H68.5334V24.3093ZM71.8498 42.684V43.9411H70.6125L70.5929 42.7041L71.8498 42.684ZM82.8385 42.684L84.0951 42.6442L84.136 43.9411H82.8385V42.684ZM82.8385 45.3287V44.0716H84.0957V45.3287H82.8385ZM71.8498 45.3287L70.5929 45.3089L70.6122 44.0716H71.8498V45.3287ZM68.5334 63.7157V64.9729H66.7531L67.3487 63.2951L68.5334 63.7157ZM77.5097 63.7157L78.5923 64.3543L78.2275 64.9729H77.5097V63.7157ZM82.8385 45.3385H84.0957V45.3584L84.0951 45.3783L82.8385 45.3385ZM75.8007 66.3456V65.0885H78.2187L76.8298 67.0678L75.8007 66.3456ZM67.4865 66.3456L66.3314 65.8493L66.6583 65.0885H67.4865V66.3456ZM57.1817 80.5742L57.6084 81.7567L56.3952 79.5934L57.1817 80.5742ZM13.1968 67.6667L12.2009 68.4338L10.642 66.4095H13.1968V67.6667ZM16.543 71.4745L17.4316 70.5855L17.4336 70.5872L16.543 71.4745ZM30.843 80.5742L31.6287 79.5929L30.4166 81.757L30.843 80.5742ZM20.536 66.3456V65.0885H21.3639L21.691 65.8493L20.536 66.3456ZM12.2215 66.3456L11.1952 67.0715L9.79268 65.0885H12.2215V66.3456ZM13.2094 67.6667L14.1882 66.8779L15.8365 68.9238H13.2094V67.6667ZM19.4913 63.7157L20.676 63.2948L21.2724 64.9729H19.4913V63.7157ZM16.1724 45.3385V44.0814H17.41L17.4296 45.3187L16.1724 45.3385ZM5.18626 45.3385L3.92963 45.378L3.88889 44.0814H5.18626V45.3385ZM44 1.25732C52.4538 1.25732 60.7178 3.76414 67.7467 8.4608L66.3498 10.5514C59.7342 6.13097 51.9565 3.77161 44 3.77161V1.25732ZM67.7467 8.4608C74.7757 13.1574 80.2543 19.8329 83.4893 27.6432L81.1664 28.6055C78.1217 21.2545 72.9654 14.9717 66.3498 10.5514L67.7467 8.4608ZM83.4893 27.6432C86.7244 35.4534 87.5708 44.0477 85.9216 52.3388L83.4556 51.8483C85.0078 44.0447 84.2112 35.9562 81.1664 28.6055L83.4893 27.6432ZM85.9216 52.3388C84.2723 60.6302 80.2015 68.2462 74.2238 74.2239L72.4459 72.4461C78.0719 66.8201 81.9034 59.6519 83.4556 51.8483L85.9216 52.3388ZM74.2238 74.2239C68.246 80.2016 60.63 84.2725 52.3387 85.9216L51.8481 83.4559C59.6517 81.9035 66.8199 78.072 72.4459 72.4461L74.2238 74.2239ZM52.3387 85.9216C44.0476 87.571 35.4532 86.7244 27.6431 83.4893L28.6053 81.1666C35.9561 84.2114 44.0445 85.0079 51.8481 83.4559L52.3387 85.9216ZM27.6431 83.4893C19.8327 80.2544 13.1573 74.7758 8.46062 67.7469L10.5512 66.3499C14.9716 72.9655 21.2543 78.1218 28.6053 81.1666L27.6431 83.4893ZM8.46062 67.7469C3.76393 60.7179 1.25719 52.454 1.25719 44.0002H3.77148C3.77148 51.9566 6.13087 59.7343 10.5512 66.3499L8.46062 67.7469ZM1.25719 44.0002C1.25719 32.664 5.76052 21.7923 13.7763 13.7764L15.5542 15.5543C8.0098 23.0986 3.77148 33.3308 3.77148 44.0002H1.25719ZM13.7763 13.7764C21.7921 5.76059 32.6639 1.25732 44 1.25732V3.77161C33.3307 3.77161 23.0985 8.00997 15.5542 15.5543L13.7763 13.7764ZM5.18626 41.4268H16.1724V43.9411H5.18626V41.4268ZM14.9155 42.6641C15.0169 36.2627 16.1624 29.9207 18.3068 23.8882L20.6758 24.7304C18.6231 30.505 17.5266 36.576 17.4296 42.7038L14.9155 42.6641ZM19.4913 25.5664H10.5128V23.0521H19.4913V25.5664ZM11.5954 24.9479C8.41184 30.3461 6.63952 36.4596 6.44265 42.7234L3.92963 42.6445C4.13982 35.9582 6.03156 29.4327 9.42987 23.6706L11.5954 24.9479ZM44 81.5988C43.9538 81.5988 44.1102 81.6044 44.4848 81.3074C44.8303 81.0336 45.2474 80.5908 45.6977 79.9683L47.735 81.4419C47.1975 82.1849 46.627 82.8177 46.0464 83.2779C45.4948 83.7151 44.787 84.1131 44 84.1131V81.5988ZM45.6924 79.9758C46.8802 78.3081 48.0742 75.6452 49.1055 72.2208L51.513 72.9459C50.4457 76.4898 49.1553 79.4476 47.7403 81.4344L45.6924 79.9758ZM49.1055 72.2208C49.6725 70.3409 50.1771 68.2912 50.6124 66.1028L53.0784 66.5933C52.6293 68.8501 52.1063 70.9785 51.513 72.9459L49.1055 72.2208ZM51.8454 67.6053H36.1721V65.091H51.8454V67.6053ZM37.4048 66.1015C37.8428 68.2917 38.3447 70.3411 38.9116 72.2203L36.5045 72.9464C35.9106 70.9782 35.3904 68.8494 34.9393 66.5946L37.4048 66.1015ZM38.9116 72.2203C39.9508 75.6734 41.0955 78.1195 42.1236 79.6719C42.6393 80.4503 43.1009 80.9667 43.4733 81.275C43.8678 81.6013 44.043 81.5988 44.0098 81.5988V84.1131C43.2038 84.1131 42.4704 83.7088 41.8702 83.2117C41.2477 82.6966 40.6289 81.9682 40.0275 81.0605C38.8224 79.2409 37.5891 76.5506 36.5045 72.9464L38.9116 72.2203ZM44.0098 84.1131H44V81.5988H44.0098V84.1131ZM51.0906 63.5158C52.0596 57.5024 52.5619 51.4231 52.5934 45.332L55.1077 45.3451C55.0755 51.5657 54.5623 57.7744 53.5729 63.9158L51.0906 63.5158ZM53.8505 46.5957H34.172V44.0814H53.8505V46.5957ZM35.4291 45.332C35.4603 51.4231 35.9629 57.5024 36.9316 63.5158L34.4495 63.9158C33.4599 57.7744 32.9467 51.5657 32.9148 45.3451L35.4291 45.332ZM35.6906 62.4586H52.3316V64.9729H35.6906V62.4586ZM52.5934 42.7003C52.5619 36.6102 52.0593 30.5317 51.0906 24.5191L53.5729 24.1192C54.5623 30.2599 55.0755 36.4676 55.1077 42.6875L52.5934 42.7003ZM52.3316 25.5763H35.6906V23.062H52.3316V25.5763ZM36.9316 24.5191C35.9629 30.5317 35.4605 36.6102 35.4291 42.7003L32.9148 42.6875C32.947 36.4676 33.4599 30.2599 34.4495 24.1192L36.9316 24.5191ZM34.172 41.4366H53.8505V43.9509H34.172V41.4366ZM50.6146 21.9197C50.1797 19.7314 49.6753 17.6821 49.1083 15.8023L51.5152 15.0762C52.1089 17.0436 52.6318 19.1725 53.0806 21.4292L50.6146 21.9197ZM49.1083 15.8023C48.0692 12.349 46.9249 9.90348 45.8973 8.35173C45.3821 7.57384 44.9205 7.05768 44.5487 6.74976C44.1547 6.4237 43.9794 6.42619 44.0124 6.42619V3.91191C44.8184 3.91191 45.5514 4.316 46.1518 4.81288C46.7741 5.32788 47.3926 6.05599 47.9935 6.96345C49.1981 8.78241 50.4308 11.4719 51.5152 15.0762L49.1083 15.8023ZM44.0124 6.42619C44.0576 6.42619 43.9007 6.42122 43.5269 6.71697C43.1816 6.99017 42.7648 7.43196 42.3147 8.05422L40.2774 6.58065C40.8152 5.8373 41.3859 5.2049 41.9667 4.74534C42.5189 4.30828 43.2264 3.91191 44.0124 3.91191V6.42619ZM42.3205 8.04602C41.1322 9.71697 39.9382 12.3778 38.9069 15.8018L36.4994 15.0767C37.567 11.5321 38.8573 8.57749 40.2716 6.58879L42.3205 8.04602ZM38.9069 15.8018C38.3401 17.6809 37.8378 19.7309 37.3998 21.921L34.9343 21.4279C35.3853 19.1731 35.9058 17.0449 36.4994 15.0767L38.9069 15.8018ZM36.167 20.4173H51.8476V22.9316H36.167V20.4173ZM39.4208 7.13223C35.0889 8.48308 30.9685 11.7639 27.5556 16.8486L25.468 15.4473C29.1127 10.0173 33.6598 6.295 38.6723 4.73197L39.4208 7.13223ZM27.5571 16.8465C26.4202 18.5475 25.4207 20.3364 24.5679 22.196L22.2824 21.1479C23.1908 19.1669 24.2556 17.2614 25.4665 15.4494L27.5571 16.8465ZM23.4251 20.4148H33.4853V22.9291H23.4251V20.4148ZM32.251 21.4339C33.5954 14.4622 35.5722 8.73272 38.0138 5.21529L40.0793 6.64891C37.9373 9.73462 36.0421 15.0531 34.7198 21.91L32.251 21.4339ZM54.5394 20.4148H64.5996V22.9291H54.5394V20.4148ZM63.4576 22.1972C62.6025 20.3377 61.6026 18.5482 60.4671 16.8454L62.559 15.4505C63.7674 17.2629 64.8316 19.1676 65.7418 21.1467L63.4576 22.1972ZM60.4691 16.8486C57.0565 11.7642 52.9336 8.48316 48.6017 7.13223L49.3502 4.73197C54.3622 6.29492 58.912 10.0171 62.5567 15.4473L60.4691 16.8486ZM50.0087 5.21529C52.4498 8.73252 54.4268 14.4544 55.7737 21.4337L53.3049 21.9102C51.9801 15.0461 50.0849 9.73482 47.9432 6.64891L50.0087 5.21529ZM56.2481 24.1217C57.2124 30.2631 57.7127 36.4684 57.7449 42.685L55.2306 42.6978C55.1989 36.6077 54.7089 30.5284 53.7643 24.5117L56.2481 24.1217ZM56.4877 41.4344H69.205V43.9486H56.4877V41.4344ZM67.9481 42.7184C67.8103 36.2881 66.6299 30.1568 64.5458 24.7703L66.8909 23.8631C69.0888 29.5445 70.3183 35.9673 70.4619 42.6643L67.9481 42.7184ZM65.7182 25.5737H55.0061V23.0596H65.7182V25.5737ZM57.7449 45.3428C57.7112 51.5599 57.2111 57.7659 56.2481 63.9081L53.764 63.5186C54.7076 57.5006 55.1977 51.4206 55.2306 45.3292L57.7449 45.3428ZM55.0061 62.4561H65.7182V64.9703H55.0061V62.4561ZM64.5458 63.2601C66.6299 57.8682 67.8103 51.7392 67.9481 45.3091L70.4619 45.3632C70.3183 52.0602 69.0886 58.4805 66.8909 64.1665L64.5458 63.2601ZM69.205 46.5932H56.4877V44.0789H69.205V46.5932ZM55.7664 66.5936C54.4218 73.5657 52.4425 79.295 50.0011 82.8122L47.9356 81.3786C50.0776 78.2928 51.9754 72.9738 53.2976 66.1174L55.7664 66.5936ZM48.5946 80.8951C52.926 79.5467 57.0487 76.2638 60.4618 71.1789L62.5494 72.5801C58.9047 78.0102 54.3549 81.7351 49.3421 83.2957L48.5946 80.8951ZM60.4601 71.1816C61.5963 69.4797 62.596 67.6905 63.4498 65.831L65.7348 66.8802C64.8254 68.8602 63.7608 70.7655 62.5509 72.5776L60.4601 71.1816ZM64.5923 67.6126H54.5319V65.0983H64.5923V67.6126ZM33.478 67.6126H23.4176V65.0983H33.478V67.6126ZM24.5596 65.8295C25.4142 67.6845 26.4159 69.4684 27.5551 71.1635L25.4685 72.566C24.2543 70.7595 23.1868 68.8584 22.2759 66.8814L24.5596 65.8295ZM27.5551 71.1635C30.968 76.2555 35.0844 79.5371 39.4203 80.8878L38.6725 83.2882C33.6545 81.725 29.1132 78.0034 25.4685 72.566L27.5551 71.1635ZM38.0138 82.8049C35.5724 79.2874 33.5957 73.5657 32.251 66.586L34.7198 66.1103C36.0421 72.9741 37.9373 78.2852 40.0793 81.3713L38.0138 82.8049ZM34.3749 67.2367L34.3673 67.244L32.5887 65.4672L32.596 65.4596L34.3749 67.2367ZM31.7741 63.9003C30.8124 57.7581 30.3123 51.5526 30.2773 45.3358L32.7916 45.3217C32.8258 51.4131 33.3158 57.4934 34.2582 63.5113L31.7741 63.9003ZM31.5345 46.5859H18.8122V44.0716H31.5345V46.5859ZM20.0691 45.3013C20.2094 51.7321 21.3878 57.8637 23.4717 63.2526L21.1266 64.1592C18.9286 58.4754 17.7016 52.0527 17.5555 45.3561L20.0691 45.3013ZM22.299 62.4488H33.0161V64.963H22.299V62.4488ZM30.2773 42.6769C30.3123 36.4608 30.8126 30.2561 31.7741 24.1148L34.2582 24.5038C33.3158 30.5211 32.8258 36.6004 32.7916 42.691L30.2773 42.6769ZM33.0161 25.5664H22.304V23.0521H33.0161V25.5664ZM23.4767 24.7625C21.3926 30.154 20.2144 36.2808 20.0741 42.7114L17.5603 42.6566C17.7064 35.96 18.9334 29.5423 21.1314 23.856L23.4767 24.7625ZM18.8172 41.4268H31.5345V43.9411H18.8172V41.4268ZM14.199 21.1121C13.8739 21.533 13.5591 21.9607 13.2297 22.409L11.2034 20.9202C11.5311 20.4745 11.8629 20.0231 12.2097 19.5748L14.199 21.1121ZM12.2165 20.4074H20.5408V22.9217H12.2165V20.4074ZM19.3859 21.1683C22.0083 15.065 25.6724 9.97151 30.0624 6.45704L31.6338 8.41982C27.6278 11.627 24.19 16.3567 21.6958 22.1609L19.3859 21.1683ZM31.2745 8.62106C26.0654 10.4991 21.3385 13.5101 17.4344 17.4368L15.6515 15.6641C19.8179 11.4734 24.8626 8.26004 30.4216 6.2558L31.2745 8.62106ZM17.4313 17.4399C16.2735 18.5965 15.1916 19.8268 14.1927 21.1231L12.2011 19.5885C13.2662 18.2062 14.4197 16.8942 15.6545 15.661L17.4313 17.4399ZM12.1184 19.7097L12.1259 19.6973L14.2827 20.9896L14.2754 21.0019L12.1184 19.7097ZM73.8298 21.1233C72.8306 19.8272 71.7495 18.5966 70.5926 17.4391L72.371 15.6618C73.604 16.8954 74.7563 18.207 75.8211 19.5883L73.8298 21.1233ZM70.5926 17.4391C66.688 13.5182 61.9611 10.5098 56.7553 8.63343L57.6079 6.2681C63.1632 8.27045 68.2043 11.4776 72.371 15.6618L70.5926 17.4391ZM57.9669 6.46911C62.3576 9.98154 66.0191 15.0779 68.6413 21.1806L66.3314 22.1732C63.837 16.3685 60.4017 11.6367 56.3962 8.43244L57.9669 6.46911ZM67.4865 20.4198H75.8007V22.9341H67.4865V20.4198ZM74.7714 22.3986C74.4704 21.9694 74.1576 21.5455 73.8325 21.1268L75.8183 19.5848C76.1683 20.0354 76.5055 20.4922 76.8301 20.9552L74.7714 22.3986ZM77.5097 25.5664H68.5334V23.0521H77.5097V25.5664ZM69.7182 23.8886C71.8603 29.9214 73.0048 36.263 73.1067 42.6641L70.5929 42.7041C70.4953 36.5763 69.3996 30.5053 67.3487 24.73L69.7182 23.8886ZM71.8498 41.4268H82.8385V43.9411H71.8498V41.4268ZM81.582 42.7237C81.3843 36.4593 79.6114 30.3461 76.4268 24.9481L78.5923 23.6705C81.9915 29.4324 83.884 35.9577 84.0951 42.6442L81.582 42.7237ZM82.8385 46.5859H71.8498V44.0716H82.8385V46.5859ZM73.1067 45.3483C73.0061 51.7537 71.8616 58.0995 69.7182 64.1363L67.3487 63.2951C69.4006 57.516 70.4963 51.4407 70.5929 45.3089L73.1067 45.3483ZM68.5334 62.4586H77.5097V64.9729H68.5334V62.4586ZM76.4268 63.0771C79.6114 57.6782 81.3843 51.5639 81.582 45.2988L84.0951 45.3783C83.884 52.0655 81.9915 58.5916 78.5923 64.3543L76.4268 63.0771ZM81.5814 45.3385V45.3287H84.0957V45.3385H81.5814ZM73.8328 66.8953C74.1556 66.4799 74.4694 66.0542 74.7716 65.6236L76.8298 67.0678C76.505 67.5309 76.1668 67.9895 75.8181 68.4383L73.8328 66.8953ZM75.8007 67.6028H67.4865V65.0885H75.8007V67.6028ZM68.6413 66.842C66.0189 72.9454 62.3548 78.0383 57.9679 81.5551L56.3952 79.5934C60.3995 76.3834 63.8372 71.6533 66.3314 65.8493L68.6413 66.842ZM56.755 79.3918C61.9601 77.5134 66.6852 74.5068 70.5914 70.5872L72.3722 72.3621C68.2041 76.5443 63.1624 79.7526 57.6084 81.7567L56.755 79.3918ZM70.5914 70.5872C71.7482 69.4289 72.8303 68.1964 73.8295 66.8996L75.8213 68.434C74.7565 69.8161 73.6053 71.1276 72.3722 72.3621L70.5914 70.5872ZM14.1929 66.8998C15.1919 68.1969 16.2738 69.4279 17.4316 70.5855L15.6542 72.3638C14.4195 71.1296 13.2659 69.8169 12.2009 68.4338L14.1929 66.8998ZM17.4336 70.5872C21.3388 74.5078 26.0639 77.5146 31.2695 79.3918L30.4166 81.757C24.8618 79.7538 19.8196 76.5454 15.6522 72.3618L17.4336 70.5872ZM30.0576 81.5556C25.6674 78.0411 22.0033 72.9452 19.3809 66.842L21.691 65.8493C24.185 71.6538 27.623 76.3857 31.6287 79.5929L30.0576 81.5556ZM20.536 67.6028H12.2215V65.0885H20.536V67.6028ZM13.2478 65.6198C13.5568 66.0568 13.8633 66.4749 14.1882 66.8779L12.2303 68.4556C11.8587 67.9943 11.5182 67.5286 11.1952 67.0715L13.2478 65.6198ZM13.2094 68.9238H13.1968V66.4095H13.2094V68.9238ZM10.5251 62.4586H19.4913V64.9729H10.5251V62.4586ZM18.3068 64.1368C16.1624 58.1036 15.0169 51.7608 14.9155 45.3584L17.4296 45.3187C17.5266 51.4475 18.6231 57.5193 20.676 63.2948L18.3068 64.1368ZM16.1724 46.5957H5.18626V44.0814H16.1724V46.5957ZM6.44265 45.2991C6.63952 51.5639 8.41184 57.6782 11.5957 63.0771L9.42987 64.3543C6.03156 58.5913 4.13982 52.065 3.92963 45.378L6.44265 45.2991Z" fill="#666666" fill-opacity="0.4"/>
</g>
<path d="M21.4776 26.5352C20.5301 28.8097 19.2986 38.5709 19.2986 38.5709L18.8248 42.3617C18.7301 43.9727 18.7301 44.8257 18.8248 46.0577C19.0144 47.0054 20.6249 57.2404 20.6249 57.2404C21.667 60.8417 21.7618 63.6847 24.1303 67.6651C24.604 68.6127 31.5389 77.4131 31.8042 77.7106C31.9368 77.8512 36.0798 80.6688 36.2569 80.7432C36.4341 80.8185 38.1495 81.6007 38.3412 81.5961L35.878 76.7629C36.0669 76.7674 33.6042 66.9067 33.6042 66.9067C33.4147 65.3904 33.2253 64.727 32.7516 62.358C32.0927 57.0331 31.6311 51.809 31.4252 46.1522C31.4162 46.0924 31.5116 45.927 31.5199 45.8679C31.6147 45.4889 31.4368 45.1208 31.6478 44.9413C31.6795 44.9144 31.7139 44.8908 31.7506 44.8714C31.8242 44.8315 31.9051 44.807 31.9877 44.8006C32.1649 44.7834 32.3429 44.816 32.5028 44.8959C32.6635 44.9757 32.798 45.0999 32.8925 45.2541L43.0665 62.6062C43.1619 62.7768 43.3027 62.9164 43.4726 63.009C43.6415 63.1024 43.8332 63.1441 44.0258 63.1323C44.2266 63.1405 44.4264 63.0969 44.6063 63.0044C44.7871 62.9128 44.9415 62.7759 45.0551 62.6062L55.2291 45.2541C55.3045 45.0999 55.4262 44.973 55.5752 44.8913C55.7251 44.8106 55.895 44.7788 56.063 44.8006C56.1457 44.807 56.2265 44.8315 56.3001 44.8714C56.3484 44.897 56.3928 44.9296 56.432 44.9678C56.4525 44.9877 56.489 45.0343 56.489 45.1126C56.489 45.1242 56.489 45.1933 56.489 45.3399C56.4962 45.3963 56.6221 45.4511 56.6135 45.5081C56.2746 50.9601 56.0668 57.8054 55.2048 62.5475C55.0154 64.0638 54.4469 66.5278 54.4469 66.9069C55.3659 67.3057 51.4421 79.41 51.1311 80.5537C51.3228 80.5582 57.0173 76.4591 57.1944 76.3838C57.3716 76.3094 63.9777 67.4266 64.1104 67.286C64.8683 65.9592 65.5315 64.3481 66.1946 62.358C66.8574 60.4658 67.1919 59.6946 67.8052 56.8614C68.9286 51.671 69.1315 47.1001 69.1315 46.5315C69.321 44.1623 69.2263 42.8355 69.0368 39.9924L68.0895 35.254L66.3841 27.1986C66.395 26.795 65.9266 25.0031 65.8157 24.6398C65.5282 23.6986 64.7735 21.9863 64.1104 20.6595C62.47 17.7373 60.3156 15.3886 58.9944 13.5518C58.8173 13.4738 51.0403 7.48568 50.8469 7.48658C53.0993 14.434 53.4117 14.99 53.7837 16.9635C53.9725 17.9647 54.068 19.617 54.6364 22.081L44.8779 40.2683C44.7871 40.417 44.6626 40.5422 44.5136 40.6301C44.3646 40.719 44.1975 40.7689 44.0258 40.7753C43.8614 40.7744 43.7015 40.7263 43.5634 40.6365C43.4245 40.5467 43.3145 40.4188 43.2446 40.2683L33.699 22.081C33.699 20.4578 33.8893 18.7901 34.2674 17.2478C35.14 13.6891 36.0675 10.3297 37.9623 6.91797L31.9937 10.8983C29.5589 13.4149 26.1171 16.0098 23.4671 21.2281C22.9934 22.1758 22.3302 23.6921 21.4776 26.5352Z" fill="#666666" fill-opacity="0.4"/>
</svg>
