<svg width="30" height="30" viewBox="0 0 30 30" fill="none" xmlns="http://www.w3.org/2000/svg">
<path d="M14.9999 0C6.71574 0 0 6.71574 0 14.9999C0 21.3547 3.95373 26.7871 9.53358 28.9727C9.4025 27.7859 9.28397 25.9607 9.58559 24.6651C9.85819 23.4944 11.3445 17.2091 11.3445 17.2091C11.3445 17.2091 10.8958 16.3106 10.8958 14.9821C10.8958 12.8964 12.1048 11.3392 13.61 11.3392C14.8898 11.3392 15.5079 12.3 15.5079 13.4521C15.5079 14.7391 14.6885 16.6633 14.2656 18.4465C13.9122 19.9394 15.0143 21.157 16.4869 21.157C19.1529 21.157 21.2022 18.3459 21.2022 14.2881C21.2022 10.6966 18.6216 8.18559 14.9366 8.18559C10.6686 8.18559 8.16345 11.3868 8.16345 14.6951C8.16345 15.9843 8.66008 17.3668 9.27979 18.1183C9.40238 18.2668 9.42033 18.3969 9.38382 18.5485C9.26996 19.0223 9.01691 20.0411 8.96723 20.2496C8.90182 20.5242 8.74984 20.5825 8.46556 20.4502C6.59217 19.5782 5.42087 16.8392 5.42087 14.6392C5.42087 9.9075 8.85878 5.56202 15.3319 5.56202C20.5354 5.56202 24.5791 9.26996 24.5791 14.2253C24.5791 19.3948 21.3196 23.5553 16.7955 23.5553C15.2755 23.5553 13.8466 22.7656 13.3575 21.8329C13.3575 21.8329 12.6053 24.6968 12.423 25.3987C12.0843 26.7015 11.1702 28.3347 10.5587 29.331C11.9621 29.7655 13.4536 29.9999 14.9999 29.9999C23.2843 29.9999 30 23.2841 30 14.9999C30 6.71574 23.2843 0 14.9999 0Z" fill="white"/>
</svg>
