<svg width="30" height="30" viewBox="0 0 30 30" fill="none" xmlns="http://www.w3.org/2000/svg">
<path d="M11.5633 15C10.7041 15 10.006 15.6981 10.006 16.5572C10.006 17.4164 10.7041 18.1324 11.5633 18.1145C12.4225 18.1145 13.1206 17.4164 13.1206 16.5572C13.1206 15.6981 12.4225 15 11.5633 15Z" fill="white"/>
<path d="M15.018 21.8377C15.6087 21.8377 17.6492 21.7661 18.7232 20.6921C18.8664 20.531 18.8664 20.2804 18.7232 20.1193C18.5621 19.9582 18.3115 19.9582 18.1504 20.1193C17.4881 20.7995 16.0383 21.0322 15.018 21.0322C13.9977 21.0322 12.5657 20.7995 11.8855 20.1193C11.7244 19.9582 11.4738 19.9582 11.3127 20.1193C11.1516 20.2804 11.1516 20.531 11.3127 20.6921C12.3688 21.7482 14.4094 21.8377 15.018 21.8377Z" fill="white"/>
<path d="M16.8795 16.5751C16.8795 17.4343 17.5776 18.1324 18.4368 18.1324C19.296 18.1324 19.9941 17.4164 19.9941 16.5751C19.9941 15.716 19.296 15.0179 18.4368 15.0179C17.5776 15.0179 16.8795 15.716 16.8795 16.5751Z" fill="white"/>
<path d="M30 15C30 23.2843 23.2843 30 15 30C6.71573 30 0 23.2843 0 15C0 6.71573 6.71573 0 15 0C23.2843 0 30 6.71573 30 15ZM22.8223 12.8162C22.2316 12.8162 21.6946 13.0489 21.3008 13.4248C19.7972 12.3508 17.7387 11.6527 15.4476 11.5632L16.45 6.87348L19.7077 7.57157C19.7435 8.39496 20.4237 9.05725 21.265 9.05725C22.1242 9.05725 22.8223 8.35916 22.8223 7.49997C22.8223 6.64078 22.1242 5.94269 21.265 5.94269C20.6564 5.94269 20.1194 6.30068 19.8688 6.81978L16.2352 6.05009C16.1278 6.03219 16.0204 6.05009 15.9488 6.10379C15.8593 6.15749 15.8056 6.24698 15.7877 6.35438L14.6779 11.5811C12.3509 11.6527 10.2566 12.3508 8.73516 13.4427C8.34136 13.0668 7.80437 12.8341 7.21368 12.8341C5.99649 12.8341 5.02991 13.8186 5.02991 15.0179C5.02991 15.9129 5.5669 16.6646 6.31869 17.0047C6.28289 17.2195 6.26499 17.4343 6.26499 17.667C6.26499 21.0322 10.185 23.7709 15.018 23.7709C19.8509 23.7709 23.771 21.0501 23.771 17.667C23.771 17.4522 23.7531 17.2195 23.7173 17.0047C24.469 16.6646 25.006 15.895 25.006 15C25.006 13.7828 24.0216 12.8162 22.8223 12.8162Z" fill="white"/>
</svg>
