<svg width="30" height="30" viewBox="0 0 30 30" fill="none" xmlns="http://www.w3.org/2000/svg">
<path fill-rule="evenodd" clip-rule="evenodd" d="M30 15C30 23.2843 23.2843 30 15 30C6.71573 30 0 23.2843 0 15C0 6.71573 6.71573 0 15 0C23.2843 0 30 6.71573 30 15ZM15.5376 11.0737C14.0786 11.6806 11.1627 12.9366 6.78994 14.8417C6.07987 15.1241 5.7079 15.4003 5.67404 15.6704C5.61681 16.1269 6.18847 16.3067 6.96692 16.5515C7.07281 16.5848 7.18252 16.6193 7.295 16.6558C8.06087 16.9048 9.09111 17.196 9.62669 17.2076C10.1125 17.2181 10.6547 17.0178 11.2534 16.6067C15.339 13.8488 17.4481 12.4548 17.5805 12.4248C17.6739 12.4036 17.8033 12.3769 17.891 12.4549C17.9787 12.5328 17.9701 12.6805 17.9608 12.7201C17.9042 12.9615 15.6602 15.0477 14.499 16.1273C14.137 16.4638 13.8802 16.7026 13.8277 16.7571C13.7101 16.8792 13.5902 16.9948 13.475 17.1058C12.7635 17.7917 12.23 18.3061 13.5046 19.146C14.1171 19.5497 14.6072 19.8835 15.0962 20.2164C15.6303 20.5801 16.1629 20.9429 16.8521 21.3946C17.0277 21.5097 17.1954 21.6293 17.3587 21.7457C17.9802 22.1888 18.5385 22.5868 19.2283 22.5233C19.6291 22.4864 20.0431 22.1096 20.2534 20.9855C20.7503 18.329 21.7271 12.5731 21.9528 10.2013C21.9726 9.99349 21.9477 9.72754 21.9278 9.61079C21.9078 9.49405 21.866 9.32771 21.7143 9.20458C21.5346 9.05875 21.2571 9.028 21.133 9.03018C20.5689 9.04012 19.7033 9.3411 15.5376 11.0737Z" fill="url(#paint0_linear_27_729)"/>
<path d="M30 15C30 23.2843 23.2843 30 15 30C6.71573 30 0 23.2843 0 15C0 6.71573 6.71573 0 15 0C23.2843 0 30 6.71573 30 15ZM15.5376 11.0737C14.0786 11.6806 11.1627 12.9366 6.78994 14.8417C6.07987 15.1241 5.7079 15.4003 5.67404 15.6704C5.61681 16.1269 6.18847 16.3067 6.96692 16.5515C7.07281 16.5848 7.18252 16.6193 7.295 16.6558C8.06087 16.9048 9.09111 17.196 9.62669 17.2076C10.1125 17.2181 10.6547 17.0178 11.2534 16.6067C15.339 13.8488 17.4481 12.4548 17.5805 12.4248C17.6739 12.4036 17.8033 12.3769 17.891 12.4549C17.9787 12.5328 17.9701 12.6805 17.9608 12.7201C17.9042 12.9615 15.6602 15.0477 14.499 16.1273C14.137 16.4638 13.8802 16.7026 13.8277 16.7571C13.7101 16.8792 13.5902 16.9948 13.475 17.1058C12.7635 17.7917 12.23 18.3061 13.5046 19.146C14.1171 19.5497 14.6073 19.8835 15.0963 20.2165C15.6303 20.5801 16.1629 20.9429 16.8521 21.3946C17.0277 21.5097 17.1954 21.6293 17.3587 21.7457C17.9802 22.1888 18.5385 22.5868 19.2283 22.5233C19.6291 22.4864 20.0431 22.1096 20.2534 20.9855C20.7503 18.329 21.7271 12.5731 21.9528 10.2013C21.9726 9.99349 21.9477 9.72754 21.9278 9.61079C21.9078 9.49405 21.866 9.32771 21.7143 9.20458C21.5346 9.05875 21.2571 9.028 21.133 9.03018C20.5689 9.04012 19.7033 9.3411 15.5376 11.0737Z" fill="white"/>
<defs>
<linearGradient id="paint0_linear_27_729" x1="15" y1="0" x2="15" y2="29.7775" gradientUnits="userSpaceOnUse">
<stop stop-color="#2AABEE"/>
<stop offset="1" stop-color="#229ED9"/>
</linearGradient>
</defs>
</svg>
